<?xml version="1.0" encoding="UTF-8" standalone="no"?>
<svg width="94px" height="91px" viewBox="0 0 94 91" version="1.1" xmlns="http://www.w3.org/2000/svg" xmlns:xlink="http://www.w3.org/1999/xlink" xmlns:sketch="http://www.bohemiancoding.com/sketch/ns">
    <title>Github_logo</title>
    <description>Created with Sketch (http://www.bohemiancoding.com/sketch)</description>
    <defs></defs>
    <g id="Page-1" stroke="none" stroke-width="1" fill="none" fill-rule="evenodd" sketch:type="MSPage">
        <path d="M46.8051192,90.8562229 C21.2577449,90.8562229 0.539205067,70.1405235 0.539205067,44.5846278 C0.539205067,24.144456 13.7957756,6.80041919 32.1822726,0.679161518 C34.4972726,0.255928389 35.3408983,1.68469526 35.3408983,2.91178728 C35.3408983,4.01105722 35.3011314,6.9197198 35.2784075,10.7799468 C22.4081437,7.98490385 19.6926345,16.9835787 19.6926345,16.9835787 C17.5878308,22.3293824 14.5541867,23.7524683 14.5541867,23.7524683 C10.3531008,26.621364 14.8723216,26.5645542 14.8723216,26.5645542 C19.5165241,26.2378977 21.9593462,21.7953701 21.9593462,21.7953701 C26.0865793,14.7253885 32.7901376,16.7677014 35.426113,17.9521861 C35.8465057,20.9403824 37.0423523,22.9798548 38.3631805,24.1359345 C28.0891253,25.3062167 17.2867388,29.2743824 17.2867388,47.0047259 C17.2867388,52.0579591 19.0904505,56.1851922 22.0502419,59.4205112 C21.5730394,60.5907934 19.9852051,65.2946462 22.5047204,71.665867 C22.5047204,71.665867 26.3876713,72.910002 35.2272787,66.9250879 C38.9170762,67.9505051 42.8767204,68.4617934 46.8108002,68.4816769 C50.7420394,68.4617934 54.6988431,67.9505051 58.3943216,66.9250879 C67.228248,72.910002 71.105518,71.665867 71.105518,71.665867 C73.6307143,65.2946462 72.0428799,60.5907934 71.568518,59.4205112 C74.5339903,56.1851922 76.3234995,52.0579591 76.3234995,47.0047259 C76.3234995,29.2289345 65.5040701,25.3175787 55.1987695,24.1728609 C56.8576161,22.744094 58.3375118,19.9206462 58.3375118,15.6031002 C58.3375118,9.4193517 58.280702,4.42860937 58.280702,2.91178728 C58.280702,1.6733333 59.1158063,0.233204463 61.4620517,0.6848425 C79.8343462,6.81746213 93.0795548,24.1472965 93.0795548,44.5846278 C93.0795548,70.1405235 72.3610149,90.8562229 46.8051192,90.8562229" id="path24" fill="#1B1817" sketch:type="MSShapeGroup" transform="translate(46.839205, 45.763810) rotate(-180.000000) translate(-46.839205, -45.763810) "></path>
    </g>
</svg>