<?xml version="1.0" encoding="UTF-8" standalone="no"?>
<svg width="100px" height="100px" viewBox="0 0 100 100" version="1.1" xmlns="http://www.w3.org/2000/svg" xmlns:xlink="http://www.w3.org/1999/xlink" xmlns:sketch="http://www.bohemiancoding.com/sketch/ns">
    <title>icon_down</title>
    <description>Created with Sketch (http://www.bohemiancoding.com/sketch)</description>
    <defs></defs>
    <g id="Page-1" stroke="none" stroke-width="1" fill="none" fill-rule="evenodd" sketch:type="MSPage">
        <g id="noun_82614_cc" sketch:type="MSLayerGroup" fill="#000000">
            <path d="M22.99,40.23 C22.439,39.679 22.439,38.79 22.99,38.25 C23.54,37.7 24.429,37.7 24.98,38.25 L50,63.21 L75.021,38.25 C75.571,37.7 76.459,37.7 77.009,38.25 C77.561,38.79 77.561,39.682 77.009,40.23 L50,67.189 L22.99,40.23 L22.99,40.23 Z M100,50 C100,22.391 77.608,0 50,0 C22.38,0 0,22.391 0,50 C0,77.609 22.38,100 50,100 C77.609,100 100,77.609 100,50 L100,50 Z" id="Shape" sketch:type="MSShapeGroup"></path>
        </g>
    </g>
</svg>